<svg width="112" height="15" viewBox="0 0 112 15" fill="none" xmlns="http://www.w3.org/2000/svg">
<path d="M0.137784 14V0.909091H5.30256C6.29545 0.909091 7.14134 1.09872 7.8402 1.47798C8.53906 1.85298 9.07173 2.375 9.43821 3.04403C9.80895 3.70881 9.99432 4.47585 9.99432 5.34517C9.99432 6.21449 9.80682 6.98153 9.43182 7.64631C9.05682 8.31108 8.51349 8.82883 7.80185 9.19957C7.09446 9.57031 6.23793 9.75568 5.23224 9.75568H1.94034V7.53764H4.7848C5.31747 7.53764 5.75639 7.44602 6.10156 7.26278C6.45099 7.07528 6.71094 6.81747 6.88139 6.48935C7.05611 6.15696 7.14347 5.77557 7.14347 5.34517C7.14347 4.91051 7.05611 4.53125 6.88139 4.20739C6.71094 3.87926 6.45099 3.62571 6.10156 3.44673C5.75213 3.26349 5.30895 3.17188 4.77202 3.17188H2.90554V14H0.137784ZM16.0188 14.1918C15.0259 14.1918 14.1673 13.9808 13.4428 13.5589C12.7227 13.1328 12.1665 12.5405 11.7745 11.782C11.3825 11.0192 11.1864 10.1349 11.1864 9.12926C11.1864 8.11506 11.3825 7.22869 11.7745 6.47017C12.1665 5.70739 12.7227 5.11506 13.4428 4.69318C14.1673 4.26705 15.0259 4.05398 16.0188 4.05398C17.0117 4.05398 17.8683 4.26705 18.5884 4.69318C19.3129 5.11506 19.8711 5.70739 20.2631 6.47017C20.6552 7.22869 20.8512 8.11506 20.8512 9.12926C20.8512 10.1349 20.6552 11.0192 20.2631 11.782C19.8711 12.5405 19.3129 13.1328 18.5884 13.5589C17.8683 13.9808 17.0117 14.1918 16.0188 14.1918ZM16.0316 12.0824C16.4833 12.0824 16.8604 11.9545 17.163 11.6989C17.4656 11.4389 17.6935 11.0852 17.8469 10.6378C18.0046 10.1903 18.0835 9.68111 18.0835 9.11009C18.0835 8.53906 18.0046 8.02983 17.8469 7.58239C17.6935 7.13494 17.4656 6.78125 17.163 6.52131C16.8604 6.26136 16.4833 6.13139 16.0316 6.13139C15.5756 6.13139 15.1921 6.26136 14.881 6.52131C14.5742 6.78125 14.342 7.13494 14.1843 7.58239C14.0309 8.02983 13.9542 8.53906 13.9542 9.11009C13.9542 9.68111 14.0309 10.1903 14.1843 10.6378C14.342 11.0852 14.5742 11.4389 14.881 11.6989C15.1921 11.9545 15.5756 12.0824 16.0316 12.0824ZM22.6218 14V4.18182H25.2617V5.89489H25.364C25.543 5.28551 25.8434 4.82528 26.2653 4.5142C26.6871 4.19886 27.1729 4.04119 27.7227 4.04119C27.859 4.04119 28.006 4.04972 28.1637 4.06676C28.3214 4.08381 28.4599 4.10724 28.5792 4.13707V6.55327C28.4513 6.51491 28.2745 6.48082 28.0487 6.45099C27.8228 6.42116 27.6161 6.40625 27.4286 6.40625C27.0281 6.40625 26.6701 6.49361 26.3548 6.66832C26.0437 6.83878 25.7965 7.07741 25.6133 7.38423C25.4343 7.69105 25.3448 8.04474 25.3448 8.44531V14H22.6218ZM35.7015 4.18182V6.22727H29.7889V4.18182H35.7015ZM31.1312 1.82955H33.8542V10.983C33.8542 11.2344 33.8926 11.4304 33.9693 11.571C34.046 11.7074 34.1525 11.8033 34.2889 11.8587C34.4295 11.9141 34.5914 11.9418 34.7747 11.9418C34.9025 11.9418 35.0304 11.9311 35.1582 11.9098C35.286 11.8842 35.3841 11.8651 35.4522 11.8523L35.8805 13.8786C35.7441 13.9212 35.5524 13.9702 35.3052 14.0256C35.0581 14.0852 34.7576 14.1214 34.4039 14.1342C33.7477 14.1598 33.1724 14.0724 32.6781 13.8722C32.188 13.6719 31.8066 13.3608 31.5339 12.9389C31.2612 12.517 31.127 11.9844 31.1312 11.3409V1.82955ZM37.4753 14V4.18182H40.1983V14H37.4753ZM38.8432 2.91619C38.4384 2.91619 38.0911 2.78196 37.8013 2.51349C37.5158 2.24077 37.373 1.91477 37.373 1.53551C37.373 1.16051 37.5158 0.838778 37.8013 0.570312C38.0911 0.297585 38.4384 0.161221 38.8432 0.161221C39.248 0.161221 39.5932 0.297585 39.8787 0.570312C40.1685 0.838778 40.3134 1.16051 40.3134 1.53551C40.3134 1.91477 40.1685 2.24077 39.8787 2.51349C39.5932 2.78196 39.248 2.91619 38.8432 2.91619ZM47.6594 4.18182V6.22727H41.5998V4.18182H47.6594ZM42.9869 14V3.4723C42.9869 2.76065 43.1254 2.17045 43.4023 1.7017C43.6836 1.23295 44.0671 0.881391 44.5529 0.647016C45.0387 0.412641 45.5906 0.295454 46.2085 0.295454C46.6261 0.295454 47.0075 0.327414 47.3526 0.391335C47.7021 0.455255 47.962 0.512784 48.1325 0.56392L47.6467 2.60938C47.5401 2.57528 47.408 2.54332 47.2504 2.51349C47.0969 2.48366 46.9393 2.46875 46.7773 2.46875C46.3768 2.46875 46.0977 2.5625 45.94 2.75C45.7823 2.93324 45.7035 3.19105 45.7035 3.52344V14H42.9869ZM53.4075 14.1918C52.4146 14.1918 51.5559 13.9808 50.8315 13.5589C50.1113 13.1328 49.5552 12.5405 49.1632 11.782C48.7711 11.0192 48.5751 10.1349 48.5751 9.12926C48.5751 8.11506 48.7711 7.22869 49.1632 6.47017C49.5552 5.70739 50.1113 5.11506 50.8315 4.69318C51.5559 4.26705 52.4146 4.05398 53.4075 4.05398C54.4004 4.05398 55.2569 4.26705 55.9771 4.69318C56.7015 5.11506 57.2598 5.70739 57.6518 6.47017C58.0439 7.22869 58.2399 8.11506 58.2399 9.12926C58.2399 10.1349 58.0439 11.0192 57.6518 11.782C57.2598 12.5405 56.7015 13.1328 55.9771 13.5589C55.2569 13.9808 54.4004 14.1918 53.4075 14.1918ZM53.4203 12.0824C53.872 12.0824 54.2491 11.9545 54.5517 11.6989C54.8542 11.4389 55.0822 11.0852 55.2356 10.6378C55.3933 10.1903 55.4721 9.68111 55.4721 9.11009C55.4721 8.53906 55.3933 8.02983 55.2356 7.58239C55.0822 7.13494 54.8542 6.78125 54.5517 6.52131C54.2491 6.26136 53.872 6.13139 53.4203 6.13139C52.9643 6.13139 52.5808 6.26136 52.2697 6.52131C51.9629 6.78125 51.7306 7.13494 51.573 7.58239C51.4196 8.02983 51.3429 8.53906 51.3429 9.11009C51.3429 9.68111 51.4196 10.1903 51.573 10.6378C51.7306 11.0852 51.9629 11.4389 52.2697 11.6989C52.5808 11.9545 52.9643 12.0824 53.4203 12.0824ZM62.7335 0.909091V14H60.0105V0.909091H62.7335ZM64.9148 14V4.18182H67.6378V14H64.9148ZM66.2827 2.91619C65.8778 2.91619 65.5305 2.78196 65.2408 2.51349C64.9553 2.24077 64.8125 1.91477 64.8125 1.53551C64.8125 1.16051 64.9553 0.838778 65.2408 0.570312C65.5305 0.297585 65.8778 0.161221 66.2827 0.161221C66.6875 0.161221 67.0327 0.297585 67.3182 0.570312C67.608 0.838778 67.7528 1.16051 67.7528 1.53551C67.7528 1.91477 67.608 2.24077 67.3182 2.51349C67.0327 2.78196 66.6875 2.91619 66.2827 2.91619ZM74.2551 14.1918C73.2623 14.1918 72.4036 13.9808 71.6792 13.5589C70.959 13.1328 70.4029 12.5405 70.0108 11.782C69.6188 11.0192 69.4228 10.1349 69.4228 9.12926C69.4228 8.11506 69.6188 7.22869 70.0108 6.47017C70.4029 5.70739 70.959 5.11506 71.6792 4.69318C72.4036 4.26705 73.2623 4.05398 74.2551 4.05398C75.248 4.05398 76.1046 4.26705 76.8248 4.69318C77.5492 5.11506 78.1074 5.70739 78.4995 6.47017C78.8915 7.22869 79.0875 8.11506 79.0875 9.12926C79.0875 10.1349 78.8915 11.0192 78.4995 11.782C78.1074 12.5405 77.5492 13.1328 76.8248 13.5589C76.1046 13.9808 75.248 14.1918 74.2551 14.1918ZM74.2679 12.0824C74.7196 12.0824 75.0968 11.9545 75.3993 11.6989C75.7019 11.4389 75.9299 11.0852 76.0833 10.6378C76.2409 10.1903 76.3198 9.68111 76.3198 9.11009C76.3198 8.53906 76.2409 8.02983 76.0833 7.58239C75.9299 7.13494 75.7019 6.78125 75.3993 6.52131C75.0968 6.26136 74.7196 6.13139 74.2679 6.13139C73.812 6.13139 73.4284 6.26136 73.1174 6.52131C72.8105 6.78125 72.5783 7.13494 72.4206 7.58239C72.2672 8.02983 72.1905 8.53906 72.1905 9.11009C72.1905 9.68111 72.2672 10.1903 72.4206 10.6378C72.5783 11.0852 72.8105 11.4389 73.1174 11.6989C73.4284 11.9545 73.812 12.0824 74.2679 12.0824ZM82.4498 14.1662C82.0279 14.1662 81.6657 14.017 81.3631 13.7188C81.0648 13.4162 80.9157 13.054 80.9157 12.6321C80.9157 12.2145 81.0648 11.8565 81.3631 11.5582C81.6657 11.2599 82.0279 11.1108 82.4498 11.1108C82.8588 11.1108 83.2168 11.2599 83.5236 11.5582C83.8304 11.8565 83.9838 12.2145 83.9838 12.6321C83.9838 12.9134 83.9114 13.1712 83.7665 13.4055C83.6259 13.6357 83.4405 13.821 83.2104 13.9616C82.9803 14.098 82.7267 14.1662 82.4498 14.1662ZM86.2195 14V4.18182H88.8146V5.91406H88.9297C89.1342 5.33878 89.4751 4.88494 89.9524 4.55256C90.4297 4.22017 91.0007 4.05398 91.6655 4.05398C92.3388 4.05398 92.9119 4.2223 93.3849 4.55895C93.858 4.89133 94.1733 5.34304 94.331 5.91406H94.4332C94.6335 5.35156 94.9957 4.90199 95.5199 4.56534C96.0483 4.22443 96.6726 4.05398 97.3928 4.05398C98.3089 4.05398 99.0526 4.34588 99.6236 4.92969C100.199 5.50923 100.487 6.33168 100.487 7.39702V14H97.7699V7.93395C97.7699 7.38849 97.625 6.9794 97.3352 6.70668C97.0455 6.43395 96.6832 6.29759 96.2486 6.29759C95.7543 6.29759 95.3686 6.45526 95.0916 6.7706C94.8146 7.08168 94.6761 7.4929 94.6761 8.00426V14H92.0362V7.87642C92.0362 7.39489 91.8977 7.01136 91.6207 6.72585C91.348 6.44034 90.9879 6.29759 90.5405 6.29759C90.2379 6.29759 89.9652 6.37429 89.7223 6.5277C89.4837 6.67685 89.294 6.88778 89.1534 7.16051C89.0128 7.42898 88.9425 7.74432 88.9425 8.10653V14H86.2195ZM107.112 14.1918C106.102 14.1918 105.233 13.9872 104.504 13.5781C103.779 13.1648 103.221 12.581 102.829 11.8267C102.437 11.0682 102.241 10.1712 102.241 9.13565C102.241 8.12571 102.437 7.23935 102.829 6.47656C103.221 5.71378 103.773 5.11932 104.485 4.69318C105.201 4.26705 106.04 4.05398 107.003 4.05398C107.651 4.05398 108.254 4.15838 108.812 4.36719C109.375 4.57173 109.865 4.88068 110.282 5.29403C110.704 5.70739 111.032 6.22727 111.267 6.85369C111.501 7.47585 111.618 8.20455 111.618 9.03977V9.78764H103.328V8.10014H109.055C109.055 7.7081 108.97 7.3608 108.799 7.05824C108.629 6.75568 108.392 6.51918 108.09 6.34872C107.792 6.17401 107.444 6.08665 107.048 6.08665C106.635 6.08665 106.268 6.18253 105.949 6.37429C105.633 6.56179 105.386 6.81534 105.207 7.13494C105.028 7.45028 104.936 7.80185 104.932 8.18963V9.79403C104.932 10.2798 105.022 10.6996 105.201 11.0533C105.384 11.407 105.642 11.6797 105.974 11.8714C106.306 12.0632 106.701 12.1591 107.157 12.1591C107.459 12.1591 107.736 12.1165 107.988 12.0312C108.239 11.946 108.454 11.8182 108.633 11.6477C108.812 11.4773 108.949 11.2685 109.042 11.0213L111.561 11.1875C111.433 11.7926 111.171 12.321 110.775 12.7727C110.382 13.2202 109.875 13.5696 109.253 13.821C108.635 14.0682 107.922 14.1918 107.112 14.1918Z" fill="#C2C2C2"/>
</svg>
